# xmcd
#
# Track frame offsets: 
#        150
#        12582
#        24952
#        40042
#        53026
#        67256
#        81698
#        94752
#        107834
#        122507
#        136272
#        149738
#        162773
#        179108
#        190944
#        203850
#        215936
#        228981
#        242886
#        257012
#        270181
#        282560
#        294795
#        308967
#        323977
#
# Disc length: 4532 seconds
#
# Revision: 0
# Processed by: cddbd v1.5.2PL0 Copyright (c) Steve Scherf et al.
# Submitted via: ExactAudioCopy v0.99pb4
#
DISCID=8211b219
DTITLE=Various Artist - The Bristol Sessions [CD4]
DYEAR=1928
DGENRE=Country
TTITLE0=Smyth County Ramblers - My Name Is Ticklish Reuben
TTITLE1=Smyth County Ramblers - Way Down In Alabama
TTITLE2=Alfred G. Karnes - Do Not Wait 'Til I'm Laid 'Neath The Clay
TTITLE3=Alfred G. Karnes - The Days Of My Childhood Plays
TTITLE4=Alfred G. Karnes - We Shall Be Reunited
TTITLE5=Ernest Phipps and His Holiness Singers - If The Light Has Gone O
TTITLE5=ut In Your Soul
TTITLE6=Ernest Phipps and His Holiness Singers - Went Up In The Clouds O
TTITLE6=f Heaven
TTITLE7=Ernest Phipps and His Holiness Singers - I Know That Jesus Set M
TTITLE7=e Free
TTITLE8=Ernest Phipps and His Holiness Singers - Shine On Me
TTITLE9=Ernest Phipps and His Holiness Singers - Bright Tomorrow
TTITLE10=Ernest Phipps and His Holiness Singers - A Little Talk With Jes
TTITLE10=us
TTITLE11=Howard - Peak (The Blind Musicians) - I Cannot Be Your Sweeth
TTITLE11=eart
TTITLE12=Howard - Peak (The Blind Musicians) - Three Black Sheep
TTITLE13=Clarence Greene - Good-night Darling
TTITLE14=Clarence Greene - Little Bunch Of Roses
TTITLE15=The Stoneman Family - The Broken-Hearted Lover
TTITLE16=Uncle Eck Dunford - Angeline, The Baker
TTITLE17=Uncle Eck Dunford - Old Shoes And Leggin's
TTITLE18=The Stoneman Family - We Parted By The River Side
TTITLE19=Ernest Stoneman's Dixie Mountaineers - Down To Jordan And Be 
TTITLE19=Saved
TTITLE20=Ernest Stoneman's Dixie Mountaineers - There's A Light Lit Up
TTITLE20=In Galilee
TTITLE21=The Stoneman Family - Going Up The Mountain After Liquor Part
TTITLE21=1
TTITLE22=The Stoneman Family - Going Up The Mountain After Liquor Part
TTITLE22=2
TTITLE23=The Stoneman Family - The Spanish Merchant's Daughter
TTITLE24=The Stoneman Family - Too Late
EXTD=
EXTT0=
EXTT1=
EXTT2=
EXTT3=
EXTT4=
EXTT5=
EXTT6=
EXTT7=
EXTT8=
EXTT9=
EXTT10=
EXTT11=
EXTT12=
EXTT13=
EXTT14=
EXTT15=
EXTT16=
EXTT17=
EXTT18=
EXTT19=
EXTT20=
EXTT21=
EXTT22=
EXTT23=
EXTT24=
PLAYORDER=
